# xmcd
#
# Track frame offsets: 
#        150
#        15014
#        30377
#        49473
#        61132
#        76591
#        91482
#        109453
#        122556
#        136773
#        151594
#        166779
#        181157
#        194283
#        207803
#        221235
#        239382
#        253813
#        270491
#        283936
#        298606
#        315617
#        332358
#
# Disc length: 4613 seconds
#
# Revision: 0
# Processed by: cddbd v1.5.1PL2 Copyright (c) Steve Scherf et al.
# Submitted via: ExactAudioCopy v0.95b4
#
DISCID=37120317
DTITLE=Amado Batista\\ - Seleção Vol.2
DYEAR=2005
DGENRE=Country
TTITLE0=Eu Quero É Namorar
TTITLE1=Esperança
TTITLE2=Eu Te Amo
TTITLE3=Secretária
TTITLE4=O Pobretão
TTITLE5=Mar de Carinho
TTITLE6=Estou Só
TTITLE7=Vidas Na Contramão
TTITLE8=Onde Está Você
TTITLE9=Meu Jeitinho
TTITLE10=Quarto Negro
TTITLE11=Bomba Atômica
TTITLE12=Você Não Voltou
TTITLE13=Quem Foi o Ladrão
TTITLE14=Quem É Você
TTITLE15=O Fruto do Nosso Amor
TTITLE16=Seguindo a Multidão
TTITLE17=Monotonia
TTITLE18=Carta Sobre a Mesa
TTITLE19=Chance
TTITLE20=Não Quero Falar Com Ela
TTITLE21=Processado Por Amor
TTITLE22=Mais e Mais nos Amamos
EXTD=
EXTT0=
EXTT1=
EXTT2=
EXTT3=
EXTT4=
EXTT5=
EXTT6=
EXTT7=
EXTT8=
EXTT9=
EXTT10=
EXTT11=
EXTT12=
EXTT13=
EXTT14=
EXTT15=
EXTT16=
EXTT17=
EXTT18=
EXTT19=
EXTT20=
EXTT21=
EXTT22=
PLAYORDER=
